<?xml version="1.0" encoding="UTF-8" standalone="no"?>
<svg
   xmlns:dc="http://purl.org/dc/elements/1.1/"
   xmlns:cc="http://creativecommons.org/ns#"
   xmlns:rdf="http://www.w3.org/1999/02/22-rdf-syntax-ns#"
   xmlns:svg="http://www.w3.org/2000/svg"
   xmlns="http://www.w3.org/2000/svg"
   xmlns:sodipodi="http://sodipodi.sourceforge.net/DTD/sodipodi-0.dtd"
   xmlns:inkscape="http://www.inkscape.org/namespaces/inkscape"
   viewBox="0 0 45.36074 37.443054"
   version="1.1"
   id="svg858"
   sodipodi:docname="stratopy.svg"
   width="45.360741"
   height="37.443054"
   inkscape:version="0.92.5 (2060ec1f9f, 2020-04-08)">
  <metadata
     id="metadata864">
    <rdf:RDF>
      <cc:Work
         rdf:about="">
        <dc:format>image/svg+xml</dc:format>
        <dc:type
           rdf:resource="http://purl.org/dc/dcmitype/StillImage" />
        <dc:title></dc:title>
      </cc:Work>
    </rdf:RDF>
  </metadata>
  <defs
     id="defs862" />
  <sodipodi:namedview
     pagecolor="#ffffff"
     bordercolor="#666666"
     borderopacity="1"
     objecttolerance="10"
     gridtolerance="10"
     guidetolerance="10"
     inkscape:pageopacity="0"
     inkscape:pageshadow="2"
     inkscape:window-width="1920"
     inkscape:window-height="1030"
     id="namedview860"
     showgrid="false"
     fit-margin-top="0"
     fit-margin-left="0"
     fit-margin-right="0"
     fit-margin-bottom="0"
     inkscape:zoom="8.7395833"
     inkscape:cx="40.388331"
     inkscape:cy="12.55896"
     inkscape:window-x="0"
     inkscape:window-y="26"
     inkscape:window-maximized="1"
     inkscape:current-layer="svg858" />
  <path
     d="m 30.8652,0.5 c -2.2701,0 -4.1086,1.5503002 -4.7172,3.6250002 -0.693,-0.36383 -1.444,-0.625 -2.2805,-0.625 -2.7591,0 -4.9984,2.24 -4.9984,5 0,0.57893 0.16247,1.1077 0.34364,1.6249998 -1.373,0.77074 -2.343,2.189 -2.343,3.875 0,2.484 2.0153,4.5 4.4985,4.5 h 18.994 c 2.4832,0 4.4985,-2.016 4.4985,-4.5 0,-1.686 -0.96996,-3.1043 -2.343,-3.875 0.18118,-0.5172898 0.34364,-1.0460998 0.34364,-1.6249998 0,-2.76 -2.2393,-5 -4.9984,-5 -0.83647,0 -1.5875,0.26117 -2.2805,0.625 C 34.97384,2.0503002 33.13538,0.5 30.86528,0.5 Z"
     stroke-miterlimit="2"
     id="path838"
     style="fill:#3777ad;fill-opacity:1;stroke:#000000;stroke-miterlimit:2"
     inkscape:connector-curvature="0" />
  <path
     d="m 14.49546,2.5 c -2.2701,0 -4.1086,1.5503 -4.7171997,3.625 -0.693,-0.36383 -1.444,-0.625 -2.2805,-0.625 -2.7591003,0 -4.9984003,2.24 -4.9984003,5 0,0.57893 0.16247,1.1077 0.34364,1.625 C 1.47,12.89574 0.5,14.314 0.5,16 c 0,2.484 2.0153,4.5 4.4985,4.5 h 18.994 c 2.4832,0 4.4985,-2.016 4.4985,-4.5 0,-1.686 -0.96996,-3.1043 -2.343,-3.875 0.18118,-0.51729 0.34364,-1.0461 0.34364,-1.625 0,-2.76 -2.2393,-5 -4.9984,-5 -0.83647,0 -1.5875,0.26117 -2.2805,0.625 C 18.6041,4.0503 16.76564,2.5 14.49554,2.5 Z"
     stroke-miterlimit="2"
     id="path844"
     inkscape:connector-curvature="0"
     style="fill:#ffd242;fill-opacity:1;stroke:#000000;stroke-miterlimit:2" />
  <text
     xml:space="preserve"
     style="font-style:normal;font-weight:normal;font-size:40px;line-height:1.25;font-family:sans-serif;letter-spacing:0px;word-spacing:0px;fill:#000000;fill-opacity:1;stroke:none;stroke-width:0.37795275;stroke-miterlimit:2;stroke-dasharray:none;stroke-opacity:1"
     x="5.0222416"
     y="30.855055"
     id="text935"><tspan
       sodipodi:role="line"
       id="tspan933"
       x="5.0222416"
       y="30.855055"
       style="font-style:normal;font-variant:normal;font-weight:normal;font-stretch:normal;font-size:16px;line-height:0;font-family:'Every StyleFree';-inkscape-font-specification:'Every StyleFree';fill:#000000;fill-opacity:1;stroke:none;stroke-width:0.37795275;stroke-miterlimit:2;stroke-dasharray:none;stroke-opacity:1">StratoPy</tspan></text>
</svg>
